<?xml version="1.0" standalone="no"?>
<!DOCTYPE svg PUBLIC "-//W3C//DTD SVG 20010904//EN"
 "http://www.w3.org/TR/2001/REC-SVG-20010904/DTD/svg10.dtd">
<svg version="1.0" xmlns="http://www.w3.org/2000/svg"
 width="112.000000pt" height="112.000000pt" viewBox="0 0 112.000000 112.000000"
 preserveAspectRatio="xMidYMid meet">
<metadata>
Created by potrace 1.14, written by Peter Selinger 2001-2017
</metadata>
<g transform="translate(0.000000,112.000000) scale(0.100000,-0.100000)"
fill="#000000" stroke="none">
<path d="M495 926 c-85 -19 -181 -79 -194 -119 -10 -32 -8 -117 2 -134 15 -24
-6 -50 -56 -68 -29 -10 -60 -26 -70 -37 -10 -10 -21 -18 -26 -18 -4 0 -16 -8
-27 -18 -11 -10 -32 -27 -47 -36 -26 -18 -37 -46 -17 -46 11 0 14 -43 3 -54
-4 -3 -8 -14 -9 -24 -1 -9 -4 -30 -8 -47 -3 -16 -8 -59 -12 -95 -3 -36 -10
-71 -16 -77 -7 -9 -7 -13 2 -13 9 0 10 -3 1 -14 -6 -7 -12 -38 -14 -67 l-2
-54 541 -3 c511 -2 541 -1 538 15 -4 33 -16 63 -25 63 -5 0 -9 7 -9 16 0 8 -4
12 -10 9 -5 -3 -10 1 -10 9 0 9 -7 16 -16 16 -8 0 -13 4 -10 9 4 5 2 11 -4 13
-5 1 -11 14 -12 28 -2 14 -7 28 -13 32 -6 5 -6 8 2 8 6 0 10 13 9 30 -1 16 2
30 7 30 4 0 5 5 2 10 -3 6 -2 10 4 10 5 0 8 10 6 22 -3 12 2 32 9 43 9 13 11
27 6 35 -5 8 -6 18 -3 24 3 5 1 6 -5 2 -19 -12 -23 13 -6 39 12 18 21 22 33
16 9 -4 30 -7 46 -7 29 1 30 3 33 55 2 30 1 65 -2 77 -6 22 -77 62 -126 70
-14 3 -39 9 -56 14 -27 9 -30 14 -31 53 -1 94 -3 103 -34 135 -17 17 -47 36
-67 42 -60 18 -240 21 -307 6z"/>
</g>
</svg>
